<mxfile host="app.diagrams.net" modified="2023-01-18T14:15:48.085Z" agent="5.0 (X11; Linux x86_64) AppleWebKit/537.36 (KHTML, like Gecko) Chrome/108.0.0.0 Safari/537.36 Edg/108.0.1462.76" etag="uzVKmipcQyKhgN6KBHPa" version="20.8.5" type="github">
  <diagram name="Page-1" id="efa7a0a1-bf9b-a30e-e6df-94a7791c09e9">
    <mxGraphModel dx="1761" dy="619" grid="1" gridSize="10" guides="1" tooltips="1" connect="1" arrows="1" fold="1" page="1" pageScale="1" pageWidth="826" pageHeight="1169" background="none" math="0" shadow="0">
      <root>
        <mxCell id="0" />
        <mxCell id="1" parent="0" />
        <mxCell id="25" value="&lt;p style=&quot;margin: 0px; margin-top: 4px; text-align: center; text-decoration: underline;&quot;&gt;&lt;b&gt;&amp;nbsp;Account&lt;/b&gt;&lt;/p&gt;&lt;hr&gt;&lt;p style=&quot;margin: 0px; margin-left: 8px;&quot;&gt;Id&lt;/p&gt;&lt;p style=&quot;margin: 0px; margin-left: 8px;&quot;&gt;name&lt;/p&gt;&lt;p style=&quot;margin: 0px; margin-left: 8px;&quot;&gt;createdAt&lt;/p&gt;&lt;p style=&quot;margin: 0px; margin-left: 8px;&quot;&gt;role - admin | superadmin&lt;/p&gt;&lt;p style=&quot;margin: 0px; margin-left: 8px;&quot;&gt;username&lt;/p&gt;&lt;p style=&quot;margin: 0px; margin-left: 8px;&quot;&gt;password&lt;/p&gt;" style="verticalAlign=top;align=left;overflow=fill;fontSize=12;fontFamily=Helvetica;html=1;strokeColor=#003366;shadow=1;fillColor=#D4E1F5;fontColor=#003366" parent="1" vertex="1">
          <mxGeometry x="-189.99999999999994" y="330.00000000000034" width="160" height="160" as="geometry" />
        </mxCell>
        <mxCell id="IdnnIoeCmM_uvnRvKUNW-121" style="edgeStyle=orthogonalEdgeStyle;rounded=0;orthogonalLoop=1;jettySize=auto;html=1;exitX=0;exitY=0.75;exitDx=0;exitDy=0;fontSize=39;startArrow=none;" edge="1" parent="1" source="IdnnIoeCmM_uvnRvKUNW-124" target="25">
          <mxGeometry relative="1" as="geometry">
            <Array as="points">
              <mxPoint x="-160" y="250" />
              <mxPoint x="-110" y="250" />
              <mxPoint x="-110" y="290" />
              <mxPoint x="-100" y="290" />
            </Array>
          </mxGeometry>
        </mxCell>
        <mxCell id="IdnnIoeCmM_uvnRvKUNW-144" value="" style="edgeStyle=orthogonalEdgeStyle;rounded=0;orthogonalLoop=1;jettySize=auto;html=1;fontSize=22;" edge="1" parent="1" source="IdnnIoeCmM_uvnRvKUNW-119" target="IdnnIoeCmM_uvnRvKUNW-126">
          <mxGeometry relative="1" as="geometry" />
        </mxCell>
        <mxCell id="IdnnIoeCmM_uvnRvKUNW-119" value="" style="rounded=0;whiteSpace=wrap;html=1;fontSize=39;fillColor=#f8cecc;strokeColor=#b85450;" vertex="1" parent="1">
          <mxGeometry x="425" y="55" width="205" height="110" as="geometry" />
        </mxCell>
        <mxCell id="IdnnIoeCmM_uvnRvKUNW-118" value="&lt;b&gt;&lt;font style=&quot;font-size: 39px;&quot;&gt;Schema&lt;/font&gt;&lt;/b&gt;" style="text;html=1;align=center;verticalAlign=middle;resizable=0;points=[];autosize=1;strokeColor=none;fillColor=none;" vertex="1" parent="1">
          <mxGeometry x="450" y="80" width="170" height="60" as="geometry" />
        </mxCell>
        <mxCell id="IdnnIoeCmM_uvnRvKUNW-122" value="&lt;p style=&quot;margin: 0px; margin-top: 4px; text-align: center; text-decoration: underline;&quot;&gt;&lt;b&gt;Device&lt;/b&gt;&lt;/p&gt;&lt;hr&gt;&lt;p style=&quot;margin: 0px; margin-left: 8px;&quot;&gt;model&lt;/p&gt;&lt;p style=&quot;margin: 0px; margin-left: 8px;&quot;&gt;brand&lt;/p&gt;&lt;p style=&quot;margin: 0px; margin-left: 8px;&quot;&gt;CPU&lt;/p&gt;&lt;p style=&quot;margin: 0px; margin-left: 8px;&quot;&gt;RAM&lt;/p&gt;&lt;p style=&quot;margin: 0px; margin-left: 8px;&quot;&gt;GPU&lt;/p&gt;&lt;p style=&quot;margin: 0px; margin-left: 8px;&quot;&gt;UUID&lt;/p&gt;&lt;p style=&quot;margin: 0px; margin-left: 8px;&quot;&gt;software-restrictions: lock | unloack&lt;/p&gt;&lt;p style=&quot;margin: 0px; margin-left: 8px;&quot;&gt;&lt;br&gt;&lt;/p&gt;&lt;p style=&quot;margin: 0px; margin-left: 8px;&quot;&gt;&lt;br&gt;&lt;/p&gt;&lt;p style=&quot;margin: 0px; margin-left: 8px;&quot;&gt;&amp;nbsp;&lt;/p&gt;" style="verticalAlign=top;align=left;overflow=fill;fontSize=12;fontFamily=Helvetica;html=1;strokeColor=#003366;shadow=1;fillColor=#D4E1F5;fontColor=#003366" vertex="1" parent="1">
          <mxGeometry x="690" y="1340" width="217" height="140" as="geometry" />
        </mxCell>
        <mxCell id="IdnnIoeCmM_uvnRvKUNW-132" style="edgeStyle=orthogonalEdgeStyle;rounded=0;orthogonalLoop=1;jettySize=auto;html=1;exitX=1;exitY=0.5;exitDx=0;exitDy=0;fontSize=22;" edge="1" parent="1" source="IdnnIoeCmM_uvnRvKUNW-123" target="IdnnIoeCmM_uvnRvKUNW-122">
          <mxGeometry relative="1" as="geometry">
            <Array as="points">
              <mxPoint x="630" y="1080" />
              <mxPoint x="550" y="1080" />
              <mxPoint x="550" y="1160" />
              <mxPoint x="799" y="1160" />
            </Array>
          </mxGeometry>
        </mxCell>
        <mxCell id="IdnnIoeCmM_uvnRvKUNW-134" value="" style="edgeStyle=orthogonalEdgeStyle;rounded=0;orthogonalLoop=1;jettySize=auto;html=1;fontSize=22;" edge="1" parent="1" source="IdnnIoeCmM_uvnRvKUNW-123" target="IdnnIoeCmM_uvnRvKUNW-133">
          <mxGeometry relative="1" as="geometry">
            <Array as="points">
              <mxPoint x="350" y="1160" />
            </Array>
          </mxGeometry>
        </mxCell>
        <mxCell id="IdnnIoeCmM_uvnRvKUNW-137" value="" style="edgeStyle=orthogonalEdgeStyle;rounded=0;orthogonalLoop=1;jettySize=auto;html=1;fontSize=22;" edge="1" parent="1" source="IdnnIoeCmM_uvnRvKUNW-123" target="IdnnIoeCmM_uvnRvKUNW-136">
          <mxGeometry relative="1" as="geometry" />
        </mxCell>
        <mxCell id="IdnnIoeCmM_uvnRvKUNW-123" value="&lt;p style=&quot;margin: 0px; margin-top: 4px; text-align: center; text-decoration: underline;&quot;&gt;&lt;b&gt;User&lt;/b&gt;&lt;/p&gt;&lt;hr&gt;&lt;p style=&quot;margin: 0px; margin-left: 8px;&quot;&gt;Id&lt;/p&gt;&lt;p style=&quot;margin: 0px; margin-left: 8px;&quot;&gt;&lt;span style=&quot;background-color: initial;&quot;&gt;createdAt&lt;/span&gt;&lt;br&gt;&lt;/p&gt;&lt;p style=&quot;margin: 0px; margin-left: 8px;&quot;&gt;Device&lt;/p&gt;&lt;p style=&quot;margin: 0px; margin-left: 8px;&quot;&gt;Errors&lt;/p&gt;&lt;p style=&quot;margin: 0px; margin-left: 8px;&quot;&gt;Crashes&lt;/p&gt;&lt;p style=&quot;margin: 0px; margin-left: 8px;&quot;&gt;user type: user | dev | tester&lt;/p&gt;&lt;p style=&quot;margin: 0px; margin-left: 8px;&quot;&gt;&lt;br&gt;&lt;/p&gt;&lt;p style=&quot;margin: 0px; margin-left: 8px;&quot;&gt;&lt;br&gt;&lt;/p&gt;&lt;p style=&quot;margin: 0px; margin-left: 8px;&quot;&gt;&amp;nbsp;&lt;/p&gt;" style="verticalAlign=top;align=left;overflow=fill;fontSize=12;fontFamily=Helvetica;html=1;strokeColor=#003366;shadow=1;fillColor=#D4E1F5;fontColor=#003366" vertex="1" parent="1">
          <mxGeometry x="470" y="1000" width="160" height="120" as="geometry" />
        </mxCell>
        <mxCell id="IdnnIoeCmM_uvnRvKUNW-125" value="" style="edgeStyle=orthogonalEdgeStyle;rounded=0;orthogonalLoop=1;jettySize=auto;html=1;exitX=0;exitY=0.75;exitDx=0;exitDy=0;fontSize=39;endArrow=none;" edge="1" parent="1" source="IdnnIoeCmM_uvnRvKUNW-119" target="IdnnIoeCmM_uvnRvKUNW-124">
          <mxGeometry relative="1" as="geometry">
            <mxPoint x="390" y="137.5" as="sourcePoint" />
            <mxPoint x="-100" y="330.00000000000045" as="targetPoint" />
          </mxGeometry>
        </mxCell>
        <mxCell id="IdnnIoeCmM_uvnRvKUNW-124" value="&lt;font style=&quot;font-size: 22px;&quot;&gt;dev-panel&lt;/font&gt;" style="rounded=1;whiteSpace=wrap;html=1;fontSize=39;fillColor=#fff2cc;strokeColor=#d6b656;" vertex="1" parent="1">
          <mxGeometry x="-170" y="200" width="120" height="65" as="geometry" />
        </mxCell>
        <mxCell id="IdnnIoeCmM_uvnRvKUNW-126" value="&lt;font style=&quot;font-size: 22px;&quot;&gt;Platform&lt;/font&gt;" style="rounded=1;whiteSpace=wrap;html=1;fontSize=39;fillColor=#fff2cc;strokeColor=#d6b656;" vertex="1" parent="1">
          <mxGeometry x="467.5" y="200" width="120" height="65" as="geometry" />
        </mxCell>
        <mxCell id="IdnnIoeCmM_uvnRvKUNW-133" value="&lt;p style=&quot;margin: 0px; margin-top: 4px; text-align: center; text-decoration: underline;&quot;&gt;&lt;b&gt;Errors&lt;/b&gt;&lt;/p&gt;&lt;hr&gt;&lt;p style=&quot;margin: 0px; margin-left: 8px;&quot;&gt;times&lt;/p&gt;&lt;p style=&quot;margin: 0px; margin-left: 8px;&quot;&gt;cause&lt;/p&gt;&lt;p style=&quot;margin: 0px; margin-left: 8px;&quot;&gt;&lt;br&gt;&lt;/p&gt;&lt;p style=&quot;margin: 0px; margin-left: 8px;&quot;&gt;&amp;nbsp;&lt;/p&gt;" style="verticalAlign=top;align=left;overflow=fill;fontSize=12;fontFamily=Helvetica;html=1;strokeColor=#003366;shadow=1;fillColor=#D4E1F5;fontColor=#003366" vertex="1" parent="1">
          <mxGeometry x="270" y="1340" width="160" height="70" as="geometry" />
        </mxCell>
        <mxCell id="IdnnIoeCmM_uvnRvKUNW-136" value="&lt;p style=&quot;margin: 0px; margin-top: 4px; text-align: center; text-decoration: underline;&quot;&gt;&lt;b&gt;Users&lt;/b&gt;&lt;/p&gt;&lt;hr&gt;&lt;p style=&quot;margin: 0px; margin-left: 8px;&quot;&gt;times&lt;/p&gt;&lt;p style=&quot;margin: 0px; margin-left: 8px;&quot;&gt;cause&lt;/p&gt;&lt;p style=&quot;margin: 0px; margin-left: 8px;&quot;&gt;&amp;nbsp;&lt;/p&gt;" style="verticalAlign=top;align=left;overflow=fill;fontSize=12;fontFamily=Helvetica;html=1;strokeColor=#003366;shadow=1;fillColor=#D4E1F5;fontColor=#003366" vertex="1" parent="1">
          <mxGeometry x="470" y="1340" width="160" height="70" as="geometry" />
        </mxCell>
        <mxCell id="IdnnIoeCmM_uvnRvKUNW-139" value="" style="edgeStyle=orthogonalEdgeStyle;rounded=0;orthogonalLoop=1;jettySize=auto;html=1;fontSize=22;endArrow=none;" edge="1" parent="1" source="IdnnIoeCmM_uvnRvKUNW-126" target="IdnnIoeCmM_uvnRvKUNW-138">
          <mxGeometry relative="1" as="geometry">
            <mxPoint x="498.0666666666666" y="265" as="sourcePoint" />
            <mxPoint x="492.4666666666667" y="504.5" as="targetPoint" />
          </mxGeometry>
        </mxCell>
        <mxCell id="IdnnIoeCmM_uvnRvKUNW-141" value="" style="edgeStyle=orthogonalEdgeStyle;rounded=0;orthogonalLoop=1;jettySize=auto;html=1;fontSize=22;" edge="1" parent="1" source="IdnnIoeCmM_uvnRvKUNW-138" target="IdnnIoeCmM_uvnRvKUNW-140">
          <mxGeometry relative="1" as="geometry" />
        </mxCell>
        <mxCell id="IdnnIoeCmM_uvnRvKUNW-146" value="" style="edgeStyle=orthogonalEdgeStyle;rounded=0;orthogonalLoop=1;jettySize=auto;html=1;fontSize=22;" edge="1" parent="1" source="IdnnIoeCmM_uvnRvKUNW-138" target="IdnnIoeCmM_uvnRvKUNW-145">
          <mxGeometry relative="1" as="geometry" />
        </mxCell>
        <mxCell id="IdnnIoeCmM_uvnRvKUNW-163" style="edgeStyle=orthogonalEdgeStyle;rounded=0;orthogonalLoop=1;jettySize=auto;html=1;exitX=0.5;exitY=1;exitDx=0;exitDy=0;fontFamily=Helvetica;fontSize=22;fontColor=#9C9C9C;" edge="1" parent="1" source="IdnnIoeCmM_uvnRvKUNW-138" target="IdnnIoeCmM_uvnRvKUNW-123">
          <mxGeometry relative="1" as="geometry" />
        </mxCell>
        <mxCell id="IdnnIoeCmM_uvnRvKUNW-138" value="&lt;p style=&quot;margin: 0px; margin-top: 4px; text-align: center; text-decoration: underline;&quot;&gt;&lt;b&gt;Platform&lt;/b&gt;&lt;/p&gt;&lt;hr&gt;&lt;p style=&quot;margin: 0px; margin-left: 8px;&quot;&gt;name&lt;/p&gt;&lt;p style=&quot;margin: 0px; margin-left: 8px;&quot;&gt;logo: optional&lt;/p&gt;&lt;p style=&quot;margin: 0px; margin-left: 8px;&quot;&gt;Users&lt;/p&gt;&lt;p style=&quot;margin: 0px; margin-left: 8px;&quot;&gt;Number of Users&lt;/p&gt;&lt;p style=&quot;margin: 0px; margin-left: 8px;&quot;&gt;Number of errors&lt;/p&gt;&lt;p style=&quot;margin: 0px; margin-left: 8px;&quot;&gt;number of crashes&lt;/p&gt;&lt;p style=&quot;margin: 0px; margin-left: 8px;&quot;&gt;last Crash report: date&lt;/p&gt;&lt;p style=&quot;margin: 0px; margin-left: 8px;&quot;&gt;last Error Report: date&lt;/p&gt;&lt;p style=&quot;border-color: var(--border-color); margin: 0px 0px 0px 8px;&quot;&gt;owner&lt;/p&gt;&lt;p style=&quot;border-color: var(--border-color); margin: 0px 0px 0px 8px;&quot;&gt;&lt;span style=&quot;background-color: initial;&quot;&gt;paltform type: android | ios | Both&lt;/span&gt;&lt;br&gt;&lt;/p&gt;&lt;p style=&quot;border-color: var(--border-color); margin: 0px 0px 0px 8px;&quot;&gt;&lt;span style=&quot;background-color: initial;&quot;&gt;releaseVersion&lt;/span&gt;&lt;/p&gt;&lt;p style=&quot;border-color: var(--border-color); margin: 0px 0px 0px 8px;&quot;&gt;&lt;span style=&quot;background-color: initial;&quot;&gt;isNewUpdateAvailable&lt;/span&gt;&lt;br&gt;&lt;/p&gt;&lt;p style=&quot;border-color: var(--border-color); margin: 0px 0px 0px 8px;&quot;&gt;&lt;span style=&quot;background-color: initial;&quot;&gt;build&lt;/span&gt;&lt;/p&gt;&lt;p style=&quot;border-color: var(--border-color); margin: 0px 0px 0px 8px;&quot;&gt;createdAt&lt;/p&gt;&lt;p style=&quot;border-color: var(--border-color); margin: 0px 0px 0px 8px;&quot;&gt;UpdatedAt&lt;/p&gt;&lt;p style=&quot;border-color: var(--border-color); margin: 0px 0px 0px 8px;&quot;&gt;&lt;br&gt;&lt;/p&gt;&lt;p style=&quot;border-color: var(--border-color); margin: 0px 0px 0px 8px;&quot;&gt;&lt;br&gt;&lt;/p&gt;&lt;p style=&quot;margin: 0px; margin-left: 8px;&quot;&gt;&amp;nbsp;&lt;/p&gt;" style="verticalAlign=top;align=left;overflow=fill;fontSize=12;fontFamily=Helvetica;html=1;strokeColor=#003366;shadow=1;fillColor=#D4E1F5;fontColor=#003366" vertex="1" parent="1">
          <mxGeometry x="427.5" y="320" width="282.5" height="260" as="geometry" />
        </mxCell>
        <mxCell id="IdnnIoeCmM_uvnRvKUNW-140" value="&lt;p style=&quot;margin: 0px; margin-top: 4px; text-align: center; text-decoration: underline;&quot;&gt;&lt;b&gt;owner&lt;/b&gt;&lt;/p&gt;&lt;hr&gt;&lt;p style=&quot;margin: 0px; margin-left: 8px;&quot;&gt;&amp;nbsp;name&lt;/p&gt;&lt;p style=&quot;margin: 0px; margin-left: 8px;&quot;&gt;&amp;nbsp;phone-number&lt;/p&gt;&lt;p style=&quot;margin: 0px; margin-left: 8px;&quot;&gt;&amp;nbsp;email&lt;/p&gt;&lt;p style=&quot;border-color: var(--border-color); margin: 0px 0px 0px 8px;&quot;&gt;&lt;br&gt;&lt;/p&gt;&lt;p style=&quot;margin: 0px; margin-left: 8px;&quot;&gt;&amp;nbsp;&lt;/p&gt;" style="verticalAlign=top;align=left;overflow=fill;fontSize=12;fontFamily=Helvetica;html=1;strokeColor=#003366;shadow=1;fillColor=#D4E1F5;fontColor=#003366" vertex="1" parent="1">
          <mxGeometry x="130" y="660" width="160" height="80" as="geometry" />
        </mxCell>
        <mxCell id="IdnnIoeCmM_uvnRvKUNW-151" value="" style="edgeStyle=orthogonalEdgeStyle;rounded=0;orthogonalLoop=1;jettySize=auto;html=1;fontSize=22;" edge="1" parent="1" source="IdnnIoeCmM_uvnRvKUNW-145" target="IdnnIoeCmM_uvnRvKUNW-149">
          <mxGeometry relative="1" as="geometry">
            <Array as="points">
              <mxPoint x="1430" y="700" />
            </Array>
          </mxGeometry>
        </mxCell>
        <mxCell id="IdnnIoeCmM_uvnRvKUNW-170" style="edgeStyle=orthogonalEdgeStyle;rounded=0;orthogonalLoop=1;jettySize=auto;html=1;exitX=0;exitY=0.75;exitDx=0;exitDy=0;fontFamily=Helvetica;fontSize=22;fontColor=#9C9C9C;" edge="1" parent="1" source="IdnnIoeCmM_uvnRvKUNW-145" target="IdnnIoeCmM_uvnRvKUNW-150">
          <mxGeometry relative="1" as="geometry">
            <Array as="points">
              <mxPoint x="1203" y="700" />
              <mxPoint x="1006" y="700" />
            </Array>
          </mxGeometry>
        </mxCell>
        <mxCell id="IdnnIoeCmM_uvnRvKUNW-145" value="&lt;p style=&quot;margin: 0px; margin-top: 4px; text-align: center; text-decoration: underline;&quot;&gt;&lt;b&gt;build&lt;/b&gt;&lt;/p&gt;&lt;hr&gt;&lt;p style=&quot;margin: 0px; margin-left: 8px;&quot;&gt;release-version&lt;/p&gt;&lt;p style=&quot;margin: 0px; margin-left: 8px;&quot;&gt;developer-version&lt;/p&gt;&lt;p style=&quot;margin: 0px; margin-left: 8px;&quot;&gt;pre-realseversion&lt;/p&gt;&lt;p style=&quot;border-color: var(--border-color); margin: 0px 0px 0px 8px;&quot;&gt;&lt;br&gt;&lt;/p&gt;&lt;p style=&quot;border-color: var(--border-color); margin: 0px 0px 0px 8px;&quot;&gt;&lt;br&gt;&lt;/p&gt;&lt;p style=&quot;margin: 0px; margin-left: 8px;&quot;&gt;&amp;nbsp;&lt;/p&gt;" style="verticalAlign=top;align=left;overflow=fill;fontSize=12;fontFamily=Helvetica;html=1;strokeColor=#003366;shadow=1;fillColor=#D4E1F5;fontColor=#003366" vertex="1" parent="1">
          <mxGeometry x="1202.5" y="620" width="120" height="80" as="geometry" />
        </mxCell>
        <mxCell id="IdnnIoeCmM_uvnRvKUNW-167" value="" style="edgeStyle=orthogonalEdgeStyle;rounded=0;orthogonalLoop=1;jettySize=auto;html=1;fontFamily=Helvetica;fontSize=22;fontColor=#9C9C9C;" edge="1" parent="1" source="IdnnIoeCmM_uvnRvKUNW-149" target="IdnnIoeCmM_uvnRvKUNW-166">
          <mxGeometry relative="1" as="geometry">
            <Array as="points">
              <mxPoint x="1430" y="920" />
            </Array>
          </mxGeometry>
        </mxCell>
        <mxCell id="IdnnIoeCmM_uvnRvKUNW-149" value="&lt;p style=&quot;margin: 0px; margin-top: 4px; text-align: center; text-decoration: underline;&quot;&gt;&lt;b&gt;developer-version&lt;/b&gt;&lt;/p&gt;&lt;hr&gt;&lt;p style=&quot;margin: 0px; margin-left: 8px;&quot;&gt;number of errors&lt;/p&gt;&lt;p style=&quot;margin: 0px; margin-left: 8px;&quot;&gt;number of crashes&lt;/p&gt;&lt;p style=&quot;margin: 0px; margin-left: 8px;&quot;&gt;isReadyForPreRealse&lt;/p&gt;&lt;p style=&quot;border-color: var(--border-color); margin: 0px 0px 0px 8px;&quot;&gt;&lt;br&gt;&lt;/p&gt;&lt;p style=&quot;border-color: var(--border-color); margin: 0px 0px 0px 8px;&quot;&gt;&lt;br&gt;&lt;/p&gt;&lt;p style=&quot;margin: 0px; margin-left: 8px;&quot;&gt;&amp;nbsp;&lt;/p&gt;" style="verticalAlign=top;align=left;overflow=fill;fontSize=12;fontFamily=Helvetica;html=1;strokeColor=#003366;shadow=1;fillColor=#D4E1F5;fontColor=#003366" vertex="1" parent="1">
          <mxGeometry x="1360" y="750" width="140" height="80" as="geometry" />
        </mxCell>
        <mxCell id="IdnnIoeCmM_uvnRvKUNW-181" value="" style="edgeStyle=orthogonalEdgeStyle;rounded=0;orthogonalLoop=1;jettySize=auto;html=1;fontFamily=Helvetica;fontSize=12;fontColor=#333333;" edge="1" parent="1" source="IdnnIoeCmM_uvnRvKUNW-150" target="IdnnIoeCmM_uvnRvKUNW-178">
          <mxGeometry relative="1" as="geometry" />
        </mxCell>
        <mxCell id="IdnnIoeCmM_uvnRvKUNW-186" value="" style="edgeStyle=orthogonalEdgeStyle;rounded=0;orthogonalLoop=1;jettySize=auto;html=1;fontFamily=Helvetica;fontSize=12;fontColor=#333333;" edge="1" parent="1" source="IdnnIoeCmM_uvnRvKUNW-150" target="IdnnIoeCmM_uvnRvKUNW-184">
          <mxGeometry relative="1" as="geometry" />
        </mxCell>
        <mxCell id="IdnnIoeCmM_uvnRvKUNW-150" value="&lt;p style=&quot;margin: 0px; margin-top: 4px; text-align: center; text-decoration: underline;&quot;&gt;&lt;b&gt;pre-release-version&lt;/b&gt;&lt;/p&gt;&lt;hr&gt;&lt;p style=&quot;border-color: var(--border-color); margin: 0px 0px 0px 8px;&quot;&gt;number of errors&lt;/p&gt;&lt;p style=&quot;border-color: var(--border-color); margin: 0px 0px 0px 8px;&quot;&gt;number of crashes&lt;/p&gt;&lt;p style=&quot;border-color: var(--border-color); margin: 0px 0px 0px 8px;&quot;&gt;isReadyForRealse&lt;/p&gt;&lt;p style=&quot;border-color: var(--border-color); margin: 0px 0px 0px 8px;&quot;&gt;&lt;br style=&quot;border-color: var(--border-color);&quot;&gt;&lt;/p&gt;&lt;p style=&quot;border-color: var(--border-color); margin: 0px 0px 0px 8px;&quot;&gt;&lt;br&gt;&lt;/p&gt;&lt;p style=&quot;margin: 0px; margin-left: 8px;&quot;&gt;&amp;nbsp;&lt;/p&gt;" style="verticalAlign=top;align=left;overflow=fill;fontSize=12;fontFamily=Helvetica;html=1;strokeColor=#003366;shadow=1;fillColor=#D4E1F5;fontColor=#003366" vertex="1" parent="1">
          <mxGeometry x="920" y="880" width="132.5" height="80" as="geometry" />
        </mxCell>
        <mxCell id="IdnnIoeCmM_uvnRvKUNW-166" value="" style="rhombus;whiteSpace=wrap;html=1;align=left;verticalAlign=top;fillColor=#D4E1F5;strokeColor=#003366;fontColor=#003366;shadow=1;" vertex="1" parent="1">
          <mxGeometry x="1205" y="880" width="117.5" height="80" as="geometry" />
        </mxCell>
        <mxCell id="IdnnIoeCmM_uvnRvKUNW-179" value="" style="edgeStyle=orthogonalEdgeStyle;rounded=0;orthogonalLoop=1;jettySize=auto;html=1;fontFamily=Helvetica;fontSize=12;fontColor=#333333;" edge="1" parent="1" source="IdnnIoeCmM_uvnRvKUNW-168" target="IdnnIoeCmM_uvnRvKUNW-178">
          <mxGeometry relative="1" as="geometry" />
        </mxCell>
        <mxCell id="IdnnIoeCmM_uvnRvKUNW-168" value="&lt;font color=&quot;#059c00&quot;&gt;Ready&lt;/font&gt;" style="text;html=1;align=center;verticalAlign=middle;resizable=0;points=[];autosize=1;strokeColor=none;fillColor=none;fontSize=22;fontFamily=Helvetica;fontColor=#9C9C9C;" vertex="1" parent="1">
          <mxGeometry x="1217.5" y="900" width="90" height="40" as="geometry" />
        </mxCell>
        <mxCell id="IdnnIoeCmM_uvnRvKUNW-173" value="&lt;font style=&quot;font-size: 12px;&quot; color=&quot;#333333&quot;&gt;After Developer test&lt;/font&gt;" style="text;html=1;align=center;verticalAlign=middle;resizable=0;points=[];autosize=1;strokeColor=none;fillColor=none;fontSize=22;fontFamily=Helvetica;fontColor=#059C00;" vertex="1" parent="1">
          <mxGeometry x="1440" y="700" width="130" height="40" as="geometry" />
        </mxCell>
        <mxCell id="IdnnIoeCmM_uvnRvKUNW-175" value="&lt;p style=&quot;line-height: 50%;&quot;&gt;&lt;font color=&quot;#333333&quot;&gt;&lt;span style=&quot;font-size: 12px;&quot;&gt;update status and merge&lt;br&gt;&amp;nbsp;pre-realse branch&lt;/span&gt;&lt;/font&gt;&lt;/p&gt;" style="text;html=1;align=center;verticalAlign=middle;resizable=0;points=[];autosize=1;strokeColor=none;fillColor=none;fontSize=22;fontFamily=Helvetica;fontColor=#059C00;" vertex="1" parent="1">
          <mxGeometry x="1450" y="860" width="160" height="90" as="geometry" />
        </mxCell>
        <mxCell id="IdnnIoeCmM_uvnRvKUNW-176" value="" style="strokeWidth=2;html=1;shape=mxgraph.flowchart.merge_or_storage;whiteSpace=wrap;labelBackgroundColor=none;fontFamily=Helvetica;fontSize=12;fillColor=#ffe6cc;strokeColor=#d79b00;align=left;" vertex="1" parent="1">
          <mxGeometry x="1082.5" y="900" width="95" height="60" as="geometry" />
        </mxCell>
        <mxCell id="IdnnIoeCmM_uvnRvKUNW-178" value="Merge" style="text;html=1;align=center;verticalAlign=middle;resizable=0;points=[];autosize=1;strokeColor=none;fillColor=none;fontSize=12;fontFamily=Helvetica;fontColor=#333333;" vertex="1" parent="1">
          <mxGeometry x="1100" y="905" width="60" height="30" as="geometry" />
        </mxCell>
        <mxCell id="IdnnIoeCmM_uvnRvKUNW-185" value="" style="rhombus;whiteSpace=wrap;html=1;align=left;verticalAlign=top;fillColor=#D4E1F5;strokeColor=#003366;fontColor=#003366;shadow=1;" vertex="1" parent="1">
          <mxGeometry x="927.5" y="1000" width="117.5" height="80" as="geometry" />
        </mxCell>
        <mxCell id="IdnnIoeCmM_uvnRvKUNW-188" value="" style="edgeStyle=orthogonalEdgeStyle;rounded=0;orthogonalLoop=1;jettySize=auto;html=1;fontFamily=Helvetica;fontSize=12;fontColor=#333333;" edge="1" parent="1" source="IdnnIoeCmM_uvnRvKUNW-184" target="IdnnIoeCmM_uvnRvKUNW-187">
          <mxGeometry relative="1" as="geometry" />
        </mxCell>
        <mxCell id="IdnnIoeCmM_uvnRvKUNW-184" value="&lt;font color=&quot;#059c00&quot;&gt;Ready&lt;/font&gt;" style="text;html=1;align=center;verticalAlign=middle;resizable=0;points=[];autosize=1;strokeColor=none;fillColor=none;fontSize=22;fontFamily=Helvetica;fontColor=#9C9C9C;" vertex="1" parent="1">
          <mxGeometry x="941.25" y="1020" width="90" height="40" as="geometry" />
        </mxCell>
        <mxCell id="IdnnIoeCmM_uvnRvKUNW-187" value="" style="strokeWidth=2;html=1;shape=mxgraph.flowchart.merge_or_storage;whiteSpace=wrap;labelBackgroundColor=none;fontFamily=Helvetica;fontSize=12;fillColor=#ffe6cc;strokeColor=#d79b00;align=left;" vertex="1" parent="1">
          <mxGeometry x="938.75" y="1120" width="95" height="60" as="geometry" />
        </mxCell>
        <mxCell id="IdnnIoeCmM_uvnRvKUNW-189" value="Merge" style="text;html=1;align=center;verticalAlign=middle;resizable=0;points=[];autosize=1;strokeColor=none;fillColor=none;fontSize=12;fontFamily=Helvetica;fontColor=#333333;" vertex="1" parent="1">
          <mxGeometry x="956.25" y="1130" width="60" height="30" as="geometry" />
        </mxCell>
        <mxCell id="IdnnIoeCmM_uvnRvKUNW-191" value="" style="edgeStyle=orthogonalEdgeStyle;rounded=0;orthogonalLoop=1;jettySize=auto;html=1;fontFamily=Helvetica;fontSize=12;fontColor=#333333;" edge="1" parent="1" source="IdnnIoeCmM_uvnRvKUNW-190" target="IdnnIoeCmM_uvnRvKUNW-189">
          <mxGeometry relative="1" as="geometry" />
        </mxCell>
        <mxCell id="IdnnIoeCmM_uvnRvKUNW-190" value="&lt;p style=&quot;margin: 0px; margin-top: 4px; text-align: center; text-decoration: underline;&quot;&gt;&lt;b&gt;release-version&lt;/b&gt;&lt;/p&gt;&lt;p style=&quot;border-color: var(--border-color); margin: 0px 0px 0px 8px;&quot;&gt;&lt;br style=&quot;border-color: var(--border-color);&quot;&gt;&lt;/p&gt;&lt;p style=&quot;border-color: var(--border-color); margin: 0px 0px 0px 8px;&quot;&gt;&lt;br&gt;&lt;/p&gt;&lt;p style=&quot;margin: 0px; margin-left: 8px;&quot;&gt;&amp;nbsp;&lt;/p&gt;" style="verticalAlign=top;align=left;overflow=fill;fontSize=12;fontFamily=Helvetica;html=1;strokeColor=#003366;shadow=1;fillColor=#D4E1F5;fontColor=#003366" vertex="1" parent="1">
          <mxGeometry x="920" y="1210" width="132.5" height="20" as="geometry" />
        </mxCell>
      </root>
    </mxGraphModel>
  </diagram>
</mxfile>
